<svg xmlns="http://www.w3.org/2000/svg">
<!-- Lucide (ISC), written by scripts/landing-icons.mjs from the names landing/*.html use. -->
<symbol id="i-anchor" viewBox="0 0 24 24"><path d="M12 6v16"/><path d="m19 13 2-1a9 9 0 0 1-18 0l2 1"/><path d="M9 11h6"/><circle cx="12" cy="4" r="2"/></symbol>
<symbol id="i-asterisk" viewBox="0 0 24 24"><path d="M12 5v14"/><path d="m18.065 8.496-12.125 7"/><path d="m5.94 8.504 12.125 7"/></symbol>
<symbol id="i-baseline" viewBox="0 0 24 24"><path d="M4 20h16"/><path d="m6 16 6-12 6 12"/><path d="M8 12h8"/></symbol>
<symbol id="i-bold" viewBox="0 0 24 24"><path d="M6 12h9a4 4 0 0 1 0 8H7a1 1 0 0 1-1-1V5a1 1 0 0 1 1-1h7a4 4 0 0 1 0 8"/></symbol>
<symbol id="i-book-open" viewBox="0 0 24 24"><path d="M12 5v16"/><path d="M20.001 19A2 2 0 0022 17V5a2 2 0 00-1.999-2L16 3.002A5 5 0 0012 5a5 5 0 00-4-2H4a2 2 0 00-2 2v12a2 2 0 001.999 2H8a5 5 0 014 2 5 5 0 014-2z"/></symbol>
<symbol id="i-bookmark" viewBox="0 0 24 24"><path d="M17 3a2 2 0 0 1 2 2v15a1 1 0 0 1-1.496.868l-4.512-2.578a2 2 0 0 0-1.984 0l-4.512 2.578A1 1 0 0 1 5 20V5a2 2 0 0 1 2-2z"/></symbol>
<symbol id="i-calculator" viewBox="0 0 24 24"><rect width="16" height="20" x="4" y="2" rx="2"/><line x1="8" x2="16" y1="6" y2="6"/><line x1="16" x2="16" y1="14" y2="18"/><path d="M16 10h.01"/><path d="M12 10h.01"/><path d="M8 10h.01"/><path d="M12 14h.01"/><path d="M8 14h.01"/><path d="M12 18h.01"/><path d="M8 18h.01"/></symbol>
<symbol id="i-calendar-days" viewBox="0 0 24 24"><path d="M8 2v3"/><path d="M16 2v3"/><rect x="3" y="3" width="18" height="18" rx="2"/><path d="M3 9h18"/><path d="M8 13h.01"/><path d="M12 13h.01"/><path d="M16 13h.01"/><path d="M8 17h.01"/><path d="M12 17h.01"/><path d="M16 17h.01"/></symbol>
<symbol id="i-circle-dot" viewBox="0 0 24 24"><circle cx="12" cy="12" r="1"/><circle cx="12" cy="12" r="10"/></symbol>
<symbol id="i-circle-question-mark" viewBox="0 0 24 24"><circle cx="12" cy="12" r="10"/><path d="M9.09 9a3 3 0 0 1 5.83 1c0 2-3 3-3 3"/><path d="M12 17h.01"/></symbol>
<symbol id="i-code" viewBox="0 0 24 24"><path d="m16 18 6-6-6-6"/><path d="m8 6-6 6 6 6"/></symbol>
<symbol id="i-copy" viewBox="0 0 24 24"><rect width="14" height="14" x="8" y="8" rx="2" ry="2"/><path d="M4 16c-1.1 0-2-.9-2-2V4c0-1.1.9-2 2-2h10c1.1 0 2 .9 2 2"/></symbol>
<symbol id="i-database" viewBox="0 0 24 24"><ellipse cx="12" cy="5" rx="9" ry="3"/><path d="M3 5V19A9 3 0 0 0 21 19V5"/><path d="M3 12A9 3 0 0 0 21 12"/></symbol>
<symbol id="i-download" viewBox="0 0 24 24"><path d="M12 15V3"/><path d="M21 15v4a2 2 0 0 1-2 2H5a2 2 0 0 1-2-2v-4"/><path d="m7 10 5 5 5-5"/></symbol>
<symbol id="i-eraser" viewBox="0 0 24 24"><path d="M21 21H8a2 2 0 0 1-1.42-.587l-3.994-3.999a2 2 0 0 1 0-2.828l10-10a2 2 0 0 1 2.829 0l5.999 6a2 2 0 0 1 0 2.828L12.834 21"/><path d="m5.082 11.09 8.828 8.828"/></symbol>
<symbol id="i-eye-off" viewBox="0 0 24 24"><path d="M10.733 5.076a10.744 10.744 0 0 1 11.205 6.575 1 1 0 0 1 0 .696 10.747 10.747 0 0 1-1.444 2.49"/><path d="M14.084 14.158a3 3 0 0 1-4.242-4.242"/><path d="M17.479 17.499a10.75 10.75 0 0 1-15.417-5.151 1 1 0 0 1 0-.696 10.75 10.75 0 0 1 4.446-5.143"/><path d="m2 2 20 20"/></symbol>
<symbol id="i-file-braces" viewBox="0 0 24 24"><path d="M6 22a2 2 0 0 1-2-2V4a2 2 0 0 1 2-2h8a2.4 2.4 0 0 1 1.704.706l3.588 3.588A2.4 2.4 0 0 1 20 8v12a2 2 0 0 1-2 2z"/><path d="M14 2v5a1 1 0 0 0 1 1h5"/><path d="M10 12a1 1 0 0 0-1 1v1a1 1 0 0 1-1 1 1 1 0 0 1 1 1v1a1 1 0 0 0 1 1"/><path d="M14 18a1 1 0 0 0 1-1v-1a1 1 0 0 1 1-1 1 1 0 0 1-1-1v-1a1 1 0 0 0-1-1"/></symbol>
<symbol id="i-file-clock" viewBox="0 0 24 24"><path d="M16 22h2a2 2 0 0 0 2-2V8a2.4 2.4 0 0 0-.706-1.706l-3.588-3.588A2.4 2.4 0 0 0 14 2H6a2 2 0 0 0-2 2v2.85"/><path d="M14 2v5a1 1 0 0 0 1 1h5"/><path d="M8 14v2.2l1.6 1"/><circle cx="8" cy="16" r="6"/></symbol>
<symbol id="i-file-image" viewBox="0 0 24 24"><path d="M6 22a2 2 0 0 1-2-2V4a2 2 0 0 1 2-2h8a2.4 2.4 0 0 1 1.704.706l3.588 3.588A2.4 2.4 0 0 1 20 8v12a2 2 0 0 1-2 2z"/><path d="M14 2v5a1 1 0 0 0 1 1h5"/><circle cx="10" cy="12" r="2"/><path d="m20 17-1.296-1.296a2.41 2.41 0 0 0-3.408 0L9 22"/></symbol>
<symbol id="i-file-music" viewBox="0 0 24 24"><path d="M11.65 22H18a2 2 0 0 0 2-2V8a2.4 2.4 0 0 0-.706-1.706l-3.588-3.588A2.4 2.4 0 0 0 14 2H6a2 2 0 0 0-2 2v10.35"/><path d="M14 2v5a1 1 0 0 0 1 1h5"/><path d="M8 20v-7l3 1.474"/><circle cx="6" cy="20" r="2"/></symbol>
<symbol id="i-file-text" viewBox="0 0 24 24"><path d="M6 22a2 2 0 0 1-2-2V4a2 2 0 0 1 2-2h8a2.4 2.4 0 0 1 1.704.706l3.588 3.588A2.4 2.4 0 0 1 20 8v12a2 2 0 0 1-2 2z"/><path d="M14 2v5a1 1 0 0 0 1 1h5"/><path d="M10 9H8"/><path d="M16 13H8"/><path d="M16 17H8"/></symbol>
<symbol id="i-film" viewBox="0 0 24 24"><rect width="18" height="18" x="3" y="3" rx="2"/><path d="M7 3v18"/><path d="M3 7.5h4"/><path d="M3 12h18"/><path d="M3 16.5h4"/><path d="M17 3v18"/><path d="M17 7.5h4"/><path d="M17 16.5h4"/></symbol>
<symbol id="i-flame" viewBox="0 0 24 24"><path d="M12 3q1 4 4 6.5t3 5.5a1 1 0 0 1-14 0 5 5 0 0 1 1-3 1 1 0 0 0 5 0c0-2-1.5-3-1.5-5q0-2 2.5-4"/></symbol>
<symbol id="i-folder" viewBox="0 0 24 24"><path d="M20 20a2 2 0 0 0 2-2V8a2 2 0 0 0-2-2h-7.9a2 2 0 0 1-1.69-.9L9.6 3.9A2 2 0 0 0 7.93 3H4a2 2 0 0 0-2 2v13a2 2 0 0 0 2 2Z"/></symbol>
<symbol id="i-folder-tree" viewBox="0 0 24 24"><path d="M20 10a1 1 0 0 0 1-1V6a1 1 0 0 0-1-1h-2.5a1 1 0 0 1-.8-.4l-.9-1.2A1 1 0 0 0 15 3h-2a1 1 0 0 0-1 1v5a1 1 0 0 0 1 1Z"/><path d="M20 21a1 1 0 0 0 1-1v-3a1 1 0 0 0-1-1h-2.9a1 1 0 0 1-.88-.55l-.42-.85a1 1 0 0 0-.92-.6H13a1 1 0 0 0-1 1v5a1 1 0 0 0 1 1Z"/><path d="M3 5a2 2 0 0 0 2 2h3"/><path d="M3 3v13a2 2 0 0 0 2 2h3"/></symbol>
<symbol id="i-funnel" viewBox="0 0 24 24"><path d="M10 20a1 1 0 0 0 .553.895l2 1A1 1 0 0 0 14 21v-7a2 2 0 0 1 .517-1.341L21.74 4.67A1 1 0 0 0 21 3H3a1 1 0 0 0-.742 1.67l7.225 7.989A2 2 0 0 1 10 14z"/></symbol>
<symbol id="i-gauge" viewBox="0 0 24 24"><path d="m12 14 4-4"/><path d="M3.34 19a10 10 0 1 1 17.32 0"/></symbol>
<symbol id="i-ghost" viewBox="0 0 24 24"><path d="M15 10v1"/><path d="M7.528 20.472a1.6 1.6 0 012.277 0l1.057 1.056a1.6 1.6 0 002.276 0l1.057-1.056a1.6 1.6 0 012.277 0l1.114 1.114a1.4 1.4 0 002.414-1V10a8 8 0 00-16 0v10.586a1.4 1.4 0 002.414 1z"/><path d="M9 10v1"/></symbol>
<symbol id="i-git-branch" viewBox="0 0 24 24"><path d="M15 6a9 9 0 0 0-9 9V3"/><circle cx="18" cy="6" r="3"/><circle cx="6" cy="18" r="3"/></symbol>
<symbol id="i-globe" viewBox="0 0 24 24"><circle cx="12" cy="12" r="10"/><path d="M12 2a14.5 14.5 0 0 0 0 20 14.5 14.5 0 0 0 0-20"/><path d="M2 12h20"/></symbol>
<symbol id="i-hash" viewBox="0 0 24 24"><line x1="4" x2="20" y1="9" y2="9"/><line x1="4" x2="20" y1="15" y2="15"/><line x1="10" x2="8" y1="3" y2="21"/><line x1="16" x2="14" y1="3" y2="21"/></symbol>
<symbol id="i-heading" viewBox="0 0 24 24"><path d="M6 12h12"/><path d="M6 20V4"/><path d="M18 20V4"/></symbol>
<symbol id="i-heading-1" viewBox="0 0 24 24"><path d="M4 12h8"/><path d="M4 18V6"/><path d="M12 18V6"/><path d="m17 12 3-2v8"/></symbol>
<symbol id="i-heading-2" viewBox="0 0 24 24"><path d="M4 12h8"/><path d="M4 18V6"/><path d="M12 18V6"/><path d="M21 18h-4c0-4 4-3 4-6 0-1.5-2-2.5-4-1"/></symbol>
<symbol id="i-highlighter" viewBox="0 0 24 24"><path d="m9 11-6 6v3h9l3-3"/><path d="m22 12-4.6 4.6a2 2 0 0 1-2.8 0l-5.2-5.2a2 2 0 0 1 0-2.8L14 4"/></symbol>
<symbol id="i-house" viewBox="0 0 24 24"><path d="M15 21v-8a1 1 0 0 0-1-1h-4a1 1 0 0 0-1 1v8"/><path d="M3 10a2 2 0 0 1 .709-1.528l7-6a2 2 0 0 1 2.582 0l7 6A2 2 0 0 1 21 10v9a2 2 0 0 1-2 2H5a2 2 0 0 1-2-2z"/></symbol>
<symbol id="i-image" viewBox="0 0 24 24"><rect width="18" height="18" x="3" y="3" rx="2" ry="2"/><circle cx="9" cy="9" r="2"/><path d="m21 15-3.086-3.086a2 2 0 0 0-2.828 0L6 21"/></symbol>
<symbol id="i-info" viewBox="0 0 24 24"><circle cx="12" cy="12" r="10"/><path d="M12 16v-4"/><path d="M12 8h.01"/></symbol>
<symbol id="i-italic" viewBox="0 0 24 24"><line x1="19" x2="10" y1="4" y2="4"/><line x1="14" x2="5" y1="20" y2="20"/><line x1="15" x2="9" y1="4" y2="20"/></symbol>
<symbol id="i-key-round" viewBox="0 0 24 24"><path d="M2.586 17.414A2 2 0 0 0 2 18.828V21a1 1 0 0 0 1 1h3a1 1 0 0 0 1-1v-1a1 1 0 0 1 1-1h1a1 1 0 0 0 1-1v-1a1 1 0 0 1 1-1h.172a2 2 0 0 0 1.414-.586l.814-.814a6.5 6.5 0 1 0-4-4z"/><circle cx="16.5" cy="7.5" r=".5" fill="currentColor"/></symbol>
<symbol id="i-laptop" viewBox="0 0 24 24"><path d="M18 5a2 2 0 0 1 2 2v8.526a2 2 0 0 0 .212.897l1.068 2.127a1 1 0 0 1-.9 1.45H3.62a1 1 0 0 1-.9-1.45l1.068-2.127A2 2 0 0 0 4 15.526V7a2 2 0 0 1 2-2z"/><path d="M20.054 15.987H3.946"/></symbol>
<symbol id="i-layers" viewBox="0 0 24 24"><path d="M12.83 2.18a2 2 0 0 0-1.66 0L2.6 6.08a1 1 0 0 0 0 1.83l8.58 3.91a2 2 0 0 0 1.66 0l8.58-3.9a1 1 0 0 0 0-1.83z"/><path d="M2 12a1 1 0 0 0 .58.91l8.6 3.91a2 2 0 0 0 1.65 0l8.58-3.9A1 1 0 0 0 22 12"/><path d="M2 17a1 1 0 0 0 .58.91l8.6 3.91a2 2 0 0 0 1.65 0l8.58-3.9A1 1 0 0 0 22 17"/></symbol>
<symbol id="i-layout-dashboard" viewBox="0 0 24 24"><rect width="7" height="9" x="3" y="3" rx="1"/><rect width="7" height="5" x="14" y="3" rx="1"/><rect width="7" height="9" x="14" y="12" rx="1"/><rect width="7" height="5" x="3" y="16" rx="1"/></symbol>
<symbol id="i-layout-grid" viewBox="0 0 24 24"><rect width="7" height="7" x="3" y="3" rx="1"/><rect width="7" height="7" x="14" y="3" rx="1"/><rect width="7" height="7" x="14" y="14" rx="1"/><rect width="7" height="7" x="3" y="14" rx="1"/></symbol>
<symbol id="i-library" viewBox="0 0 24 24"><path d="m16 6 4 14"/><path d="M12 6v14"/><path d="M8 8v12"/><path d="M4 4v16"/></symbol>
<symbol id="i-link" viewBox="0 0 24 24"><path d="M10 13a5 5 0 0 0 7.54.54l3-3a5 5 0 0 0-7.07-7.07l-1.72 1.71"/><path d="M14 11a5 5 0 0 0-7.54-.54l-3 3a5 5 0 0 0 7.07 7.07l1.71-1.71"/></symbol>
<symbol id="i-list" viewBox="0 0 24 24"><path d="M3 5h.01"/><path d="M3 12h.01"/><path d="M3 19h.01"/><path d="M8 5h13"/><path d="M8 12h13"/><path d="M8 19h13"/></symbol>
<symbol id="i-list-checks" viewBox="0 0 24 24"><path d="M13 5h8"/><path d="M13 12h8"/><path d="M13 19h8"/><path d="m3 17 2 2 4-4"/><path d="m3 7 2 2 4-4"/></symbol>
<symbol id="i-list-ordered" viewBox="0 0 24 24"><path d="M11 5h10"/><path d="M11 12h10"/><path d="M11 19h10"/><path d="M4 4h1v5"/><path d="M4 9h2"/><path d="M6.5 20H3.4c0-1 2.6-1.925 2.6-3.5a1.5 1.5 0 0 0-2.6-1.02"/></symbol>
<symbol id="i-list-todo" viewBox="0 0 24 24"><path d="M13 5h8"/><path d="M13 12h8"/><path d="M13 19h8"/><path d="m3 17 2 2 4-4"/><rect x="3" y="4" width="6" height="6" rx="1"/></symbol>
<symbol id="i-lock" viewBox="0 0 24 24"><rect width="18" height="11" x="3" y="11" rx="2" ry="2"/><path d="M7 11V7a5 5 0 0 1 10 0v4"/></symbol>
<symbol id="i-lock-open" viewBox="0 0 24 24"><rect width="18" height="11" x="3" y="11" rx="2" ry="2"/><path d="M7 11V7a5 5 0 0 1 9.9-1"/></symbol>
<symbol id="i-map-pin" viewBox="0 0 24 24"><path d="M20 10c0 4.993-5.539 10.193-7.399 11.799a1 1 0 0 1-1.202 0C9.539 20.193 4 14.993 4 10a8 8 0 0 1 16 0"/><circle cx="12" cy="10" r="3"/></symbol>
<symbol id="i-megaphone" viewBox="0 0 24 24"><path d="M11 6a13 13 0 0 0 8.4-2.8A1 1 0 0 1 21 4v12a1 1 0 0 1-1.6.8A13 13 0 0 0 11 14H5a2 2 0 0 1-2-2V8a2 2 0 0 1 2-2z"/><path d="M6 14a12 12 0 0 0 2.4 7.2 2 2 0 0 0 3.2-2.4A8 8 0 0 1 10 14"/><path d="M8 6v8"/></symbol>
<symbol id="i-message-square" viewBox="0 0 24 24"><path d="M22 17a2 2 0 0 1-2 2H6.828a2 2 0 0 0-1.414.586l-2.202 2.202A.71.71 0 0 1 2 21.286V5a2 2 0 0 1 2-2h16a2 2 0 0 1 2 2z"/></symbol>
<symbol id="i-message-square-dashed" viewBox="0 0 24 24"><path d="M14 3h2"/><path d="M16 19h-2"/><path d="M2 12v-2"/><path d="M2 16v5.286a.71.71 0 0 0 1.212.502l1.149-1.149"/><path d="M20 19a2 2 0 0 0 2-2v-1"/><path d="M22 10v2"/><path d="M22 6V5a2 2 0 0 0-2-2"/><path d="M4 3a2 2 0 0 0-2 2v1"/><path d="M8 19h2"/><path d="M8 3h2"/></symbol>
<symbol id="i-message-square-quote" viewBox="0 0 24 24"><path d="M14 14a2 2 0 0 0 2-2V8h-2"/><path d="M22 17a2 2 0 0 1-2 2H6.828a2 2 0 0 0-1.414.586l-2.202 2.202A.71.71 0 0 1 2 21.286V5a2 2 0 0 1 2-2h16a2 2 0 0 1 2 2z"/><path d="M8 14a2 2 0 0 0 2-2V8H8"/></symbol>
<symbol id="i-message-square-text" viewBox="0 0 24 24"><path d="M22 17a2 2 0 0 1-2 2H6.828a2 2 0 0 0-1.414.586l-2.202 2.202A.71.71 0 0 1 2 21.286V5a2 2 0 0 1 2-2h16a2 2 0 0 1 2 2z"/><path d="M7 11h10"/><path d="M7 15h6"/><path d="M7 7h8"/></symbol>
<symbol id="i-mic" viewBox="0 0 24 24"><path d="M12 19v3"/><path d="M19 10v2a7 7 0 0 1-14 0v-2"/><rect x="9" y="2" width="6" height="13" rx="3"/></symbol>
<symbol id="i-minus" viewBox="0 0 24 24"><path d="M5 12h14"/></symbol>
<symbol id="i-monitor" viewBox="0 0 24 24"><rect width="20" height="14" x="2" y="3" rx="2"/><line x1="8" x2="16" y1="21" y2="21"/><line x1="12" x2="12" y1="17" y2="21"/></symbol>
<symbol id="i-mouse-pointer-2" viewBox="0 0 24 24"><path d="M4.037 4.688a.495.495 0 0 1 .651-.651l16 6.5a.5.5 0 0 1-.063.947l-6.124 1.58a2 2 0 0 0-1.438 1.435l-1.579 6.126a.5.5 0 0 1-.947.063z"/></symbol>
<symbol id="i-move-vertical" viewBox="0 0 24 24"><path d="M12 2v20"/><path d="m8 18 4 4 4-4"/><path d="m8 6 4-4 4 4"/></symbol>
<symbol id="i-notebook-pen" viewBox="0 0 24 24"><path d="M13.4 2H6a2 2 0 0 0-2 2v16a2 2 0 0 0 2 2h12a2 2 0 0 0 2-2v-7.4"/><path d="M2 6h4"/><path d="M2 10h4"/><path d="M2 14h4"/><path d="M2 18h4"/><path d="M21.378 5.626a1 1 0 1 0-3.004-3.004l-5.01 5.012a2 2 0 0 0-.506.854l-.837 2.87a.5.5 0 0 0 .62.62l2.87-.837a2 2 0 0 0 .854-.506z"/></symbol>
<symbol id="i-panel-bottom-open" viewBox="0 0 24 24"><rect width="18" height="18" x="3" y="3" rx="2"/><path d="M3 15h18"/><path d="m9 10 3-3 3 3"/></symbol>
<symbol id="i-play" viewBox="0 0 24 24"><path d="M5 5a2 2 0 0 1 3.008-1.728l11.997 6.998a2 2 0 0 1 .003 3.458l-12 7A2 2 0 0 1 5 19z"/></symbol>
<symbol id="i-plug" viewBox="0 0 24 24"><path d="M12 22v-5"/><path d="M15 8V2"/><path d="M17 8a1 1 0 0 1 1 1v4a4 4 0 0 1-4 4h-4a4 4 0 0 1-4-4V9a1 1 0 0 1 1-1z"/><path d="M9 8V2"/></symbol>
<symbol id="i-plug-zap" viewBox="0 0 24 24"><path d="M6.3 20.3a2.4 2.4 0 0 0 3.4 0L12 18l-6-6-2.3 2.3a2.4 2.4 0 0 0 0 3.4Z"/><path d="m2 22 3-3"/><path d="M7.5 13.5 10 11"/><path d="M10.5 16.5 13 14"/><path d="m18 3-4 4h6l-4 4"/></symbol>
<symbol id="i-plus" viewBox="0 0 24 24"><path d="M5 12h14"/><path d="M12 5v14"/></symbol>
<symbol id="i-pointer" viewBox="0 0 24 24"><path d="M22 14a8 8 0 0 1-8 8"/><path d="M18 11v-1a2 2 0 0 0-2-2a2 2 0 0 0-2 2"/><path d="M14 10V9a2 2 0 0 0-2-2a2 2 0 0 0-2 2v1"/><path d="M10 9.5V4a2 2 0 0 0-2-2a2 2 0 0 0-2 2v10"/><path d="M18 11a2 2 0 1 1 4 0v3a8 8 0 0 1-8 8h-2c-2.8 0-4.5-.86-5.99-2.34l-3.6-3.6a2 2 0 0 1 2.83-2.82L7 15"/></symbol>
<symbol id="i-radio" viewBox="0 0 24 24"><path d="M16.247 7.761a6 6 0 0 1 0 8.478"/><path d="M19.075 4.933a10 10 0 0 1 0 14.134"/><path d="M4.925 19.067a10 10 0 0 1 0-14.134"/><path d="M7.753 16.239a6 6 0 0 1 0-8.478"/><circle cx="12" cy="12" r="2"/></symbol>
<symbol id="i-refresh-cw" viewBox="0 0 24 24"><path d="M3 12a9 9 0 0 1 9-9 9.75 9.75 0 0 1 6.74 2.74L21 8"/><path d="M21 3v5h-5"/><path d="M21 12a9 9 0 0 1-9 9 9.75 9.75 0 0 1-6.74-2.74L3 16"/><path d="M8 16H3v5"/></symbol>
<symbol id="i-rotate-ccw" viewBox="0 0 24 24"><path d="M3 12a9 9 0 1 0 9-9 9.75 9.75 0 0 0-6.74 2.74L3 8"/><path d="M3 3v5h5"/></symbol>
<symbol id="i-rotate-ccw-clock" viewBox="0 0 24 24"><path d="M3 12a9 9 0 1 0 9-9 9.75 9.75 0 0 0-6.74 2.74L3 8"/><path d="M3 3v5h5"/><path d="M12 7v5l4 2"/></symbol>
<symbol id="i-search" viewBox="0 0 24 24"><path d="m21 21-4.34-4.34"/><circle cx="11" cy="11" r="8"/></symbol>
<symbol id="i-settings-2" viewBox="0 0 24 24"><path d="M14 17H5"/><path d="M19 7h-9"/><circle cx="17" cy="17" r="3"/><circle cx="7" cy="7" r="3"/></symbol>
<symbol id="i-share-2" viewBox="0 0 24 24"><circle cx="18" cy="5" r="3"/><circle cx="6" cy="12" r="3"/><circle cx="18" cy="19" r="3"/><line x1="8.59" x2="15.42" y1="13.51" y2="17.49"/><line x1="15.41" x2="8.59" y1="6.51" y2="10.49"/></symbol>
<symbol id="i-shield-check" viewBox="0 0 24 24"><path d="M20 13c0 5-3.5 7.5-7.66 8.95a1 1 0 0 1-.67-.01C7.5 20.5 4 18 4 13V6a1 1 0 0 1 1-1c2 0 4.5-1.2 6.24-2.72a1.17 1.17 0 0 1 1.52 0C14.51 3.81 17 5 19 5a1 1 0 0 1 1 1z"/><path d="m9 12 2 2 4-4"/></symbol>
<symbol id="i-shopping-bag" viewBox="0 0 24 24"><path d="M16 10a4 4 0 0 1-8 0"/><path d="M3.103 6.034h17.794"/><path d="M3.4 5.467a2 2 0 0 0-.4 1.2V20a2 2 0 0 0 2 2h14a2 2 0 0 0 2-2V6.667a2 2 0 0 0-.4-1.2l-2-2.667A2 2 0 0 0 17 2H7a2 2 0 0 0-1.6.8z"/></symbol>
<symbol id="i-sigma" viewBox="0 0 24 24"><path d="M18 7V5a1 1 0 0 0-1-1H6.5a.5.5 0 0 0-.4.8l4.5 6a2 2 0 0 1 0 2.4l-4.5 6a.5.5 0 0 0 .4.8H17a1 1 0 0 0 1-1v-2"/></symbol>
<symbol id="i-signature" viewBox="0 0 24 24"><path d="m21 17-2.156-1.868A.5.5 0 0 0 18 15.5v.5a1 1 0 0 1-1 1h-2a1 1 0 0 1-1-1c0-2.545-3.991-3.97-8.5-4a1 1 0 0 0 0 5c4.153 0 4.745-11.295 5.708-13.5a2.5 2.5 0 1 1 3.31 3.284"/><path d="M3 21h18"/></symbol>
<symbol id="i-smartphone" viewBox="0 0 24 24"><rect width="14" height="20" x="5" y="2" rx="2" ry="2"/><path d="M12 18h.01"/></symbol>
<symbol id="i-snowflake" viewBox="0 0 24 24"><path d="m10 20-1.25-2.5L6 18"/><path d="M10 4 8.75 6.5 6 6"/><path d="m14 20 1.25-2.5L18 18"/><path d="m14 4 1.25 2.5L18 6"/><path d="m17 21-3-6h-4"/><path d="m17 3-3 6 1.5 3"/><path d="M2 12h6.5L10 9"/><path d="m20 10-1.5 2 1.5 2"/><path d="M22 12h-6.5L14 15"/><path d="m4 10 1.5 2L4 14"/><path d="m7 21 3-6-1.5-3"/><path d="m7 3 3 6h4"/></symbol>
<symbol id="i-sparkles" viewBox="0 0 24 24"><path d="M11.017 2.814a1 1 0 0 1 1.966 0l1.051 5.558a2 2 0 0 0 1.594 1.594l5.558 1.051a1 1 0 0 1 0 1.966l-5.558 1.051a2 2 0 0 0-1.594 1.594l-1.051 5.558a1 1 0 0 1-1.966 0l-1.051-5.558a2 2 0 0 0-1.594-1.594l-5.558-1.051a1 1 0 0 1 0-1.966l5.558-1.051a2 2 0 0 0 1.594-1.594z"/><path d="M20 2v4"/><path d="M22 4h-4"/><circle cx="4" cy="20" r="2"/></symbol>
<symbol id="i-square-arrow-out-up-right" viewBox="0 0 24 24"><path d="M21 13v6a2 2 0 0 1-2 2H5a2 2 0 0 1-2-2V5a2 2 0 0 1 2-2h6"/><path d="m21 3-9 9"/><path d="M15 3h6v6"/></symbol>
<symbol id="i-square-code" viewBox="0 0 24 24"><path d="m10 9-3 3 3 3"/><path d="m14 15 3-3-3-3"/><rect x="3" y="3" width="18" height="18" rx="2"/></symbol>
<symbol id="i-square-dashed" viewBox="0 0 24 24"><path d="M5 3a2 2 0 0 0-2 2"/><path d="M19 3a2 2 0 0 1 2 2"/><path d="M21 19a2 2 0 0 1-2 2"/><path d="M5 21a2 2 0 0 1-2-2"/><path d="M9 3h1"/><path d="M9 21h1"/><path d="M14 3h1"/><path d="M14 21h1"/><path d="M3 9v1"/><path d="M21 9v1"/><path d="M3 14v1"/><path d="M21 14v1"/></symbol>
<symbol id="i-square-kanban" viewBox="0 0 24 24"><rect width="18" height="18" x="3" y="3" rx="2"/><path d="M8 7v7"/><path d="M12 7v4"/><path d="M16 7v9"/></symbol>
<symbol id="i-sticker" viewBox="0 0 24 24"><path d="M21 9a2.4 2.4 0 0 0-.706-1.706l-3.588-3.588A2.4 2.4 0 0 0 15 3H5a2 2 0 0 0-2 2v14a2 2 0 0 0 2 2h14a2 2 0 0 0 2-2z"/><path d="M15 3v5a1 1 0 0 0 1 1h5"/><path d="M8 13h.01"/><path d="M16 13h.01"/><path d="M10 16s.8 1 2 1c1.3 0 2-1 2-1"/></symbol>
<symbol id="i-strikethrough" viewBox="0 0 24 24"><path d="M16 4H9a3 3 0 0 0-2.83 4"/><path d="M14 12a4 4 0 0 1 0 8H6"/><line x1="4" x2="20" y1="12" y2="12"/></symbol>
<symbol id="i-subscript" viewBox="0 0 24 24"><path d="m4 5 8 8"/><path d="m12 5-8 8"/><path d="M20 19h-4c0-1.5.44-2 1.5-2.5S20 15.33 20 14c0-.47-.17-.93-.48-1.29a2.11 2.11 0 0 0-2.62-.44c-.42.24-.74.62-.9 1.07"/></symbol>
<symbol id="i-superscript" viewBox="0 0 24 24"><path d="m4 19 8-8"/><path d="m12 19-8-8"/><path d="M20 12h-4c0-1.5.442-2 1.5-2.5S20 8.334 20 7.002c0-.472-.17-.93-.484-1.29a2.105 2.105 0 0 0-2.617-.436c-.42.239-.738.614-.899 1.06"/></symbol>
<symbol id="i-table" viewBox="0 0 24 24"><path d="M12 3v18"/><rect width="18" height="18" x="3" y="3" rx="2"/><path d="M3 9h18"/><path d="M3 15h18"/></symbol>
<symbol id="i-text-align-start" viewBox="0 0 24 24"><path d="M21 5H3"/><path d="M15 12H3"/><path d="M17 19H3"/></symbol>
<symbol id="i-ticket" viewBox="0 0 24 24"><path d="M2 9a3 3 0 0 1 0 6v2a2 2 0 0 0 2 2h16a2 2 0 0 0 2-2v-2a3 3 0 0 1 0-6V7a2 2 0 0 0-2-2H4a2 2 0 0 0-2 2Z"/><path d="M13 5v2"/><path d="M13 17v2"/><path d="M13 11v2"/></symbol>
<symbol id="i-user-round-x" viewBox="0 0 24 24"><path d="m16.5 16.5 5 5"/><path d="M2 21a8 8 0 0 1 11.531-7.18"/><path d="m21.5 16.5-5 5"/><circle cx="10" cy="8" r="5"/></symbol>
<symbol id="i-users" viewBox="0 0 24 24"><path d="M16 21v-2a4 4 0 0 0-4-4H6a4 4 0 0 0-4 4v2"/><path d="M16 3.128a4 4 0 0 1 0 7.744"/><path d="M22 21v-2a4 4 0 0 0-3-3.87"/><circle cx="9" cy="7" r="4"/></symbol>
<symbol id="i-waves-horizontal" viewBox="0 0 24 24"><path d="M2 12q2.5 2 5 0t5 0 5 0 5 0"/><path d="M2 19q2.5 2 5 0t5 0 5 0 5 0"/><path d="M2 5q2.5 2 5 0t5 0 5 0 5 0"/></symbol>
<symbol id="i-waypoints" viewBox="0 0 24 24"><path d="m10.586 5.414-5.172 5.172"/><path d="m18.586 13.414-5.172 5.172"/><path d="M6 12h12"/><circle cx="12" cy="20" r="2"/><circle cx="12" cy="4" r="2"/><circle cx="20" cy="12" r="2"/><circle cx="4" cy="12" r="2"/></symbol>
<symbol id="i-workflow" viewBox="0 0 24 24"><rect width="8" height="8" x="3" y="3" rx="2"/><path d="M7 11v4a2 2 0 0 0 2 2h4"/><rect width="8" height="8" x="13" y="13" rx="2"/></symbol>
</svg>
